<?xml version="1.0" encoding="UTF-8"?>
<svg version="1.1" xmlns="http://www.w3.org/2000/svg" width="108" height="108">
<path d="M0 0 C35.64 0 71.28 0 108 0 C108 35.64 108 71.28 108 108 C72.36 108 36.72 108 0 108 C0 72.36 0 36.72 0 0 Z " fill="#027AF1" transform="translate(0,0)"/>
<path d="M0 0 C1.10472153 -0.01260864 2.20944305 -0.02521729 3.34764099 -0.03820801 C4.53624222 -0.03011108 5.72484344 -0.02201416 6.94946289 -0.01367188 C8.17492325 -0.01749878 9.40038361 -0.02132568 10.66297913 -0.02526855 C13.25449444 -0.02799049 15.84603709 -0.02060982 18.4375 -0.00390625 C22.40370025 0.01747881 26.36808507 -0.00369138 30.33422852 -0.02929688 C32.85181064 -0.02665329 35.36939163 -0.02152769 37.88696289 -0.01367188 C39.07353989 -0.0217688 40.26011688 -0.02986572 41.48265076 -0.03820801 C49.64944244 0.05473775 49.64944244 0.05473775 53.74462891 2.32421875 C55.48461914 4.51757813 55.48461914 4.51757813 55.92211914 8.14257812 C55.48461914 11.51757812 55.48461914 11.51757812 53.48461914 13.51757812 C49.85961914 13.64257812 49.85961914 13.64257812 46.48461914 13.51757812 C46.5890332 14.46117187 46.5890332 14.46117187 46.69555664 15.42382812 C47.09063666 21.66985517 46.21217197 25.05503379 42.14477539 29.83398438 C40.07046907 31.93757502 37.84630324 33.74631505 35.48461914 35.51757812 C33.03051556 39.19873349 33.25174071 41.17051411 33.48461914 45.51757812 C34.98021322 50.00436037 38.42960616 51.71390656 42.13696289 54.48242188 C44.47319234 56.50767236 45.53126217 57.61441763 46.48461914 60.51757812 C46.67993164 63.31445312 46.67993164 63.31445312 46.60961914 66.26757812 C46.59157227 67.25242187 46.57352539 68.23726563 46.55493164 69.25195312 C46.53172852 69.99960938 46.50852539 70.74726562 46.48461914 71.51757812 C47.59836914 71.47632812 48.71211914 71.43507813 49.85961914 71.39257812 C53.48461914 71.51757812 53.48461914 71.51757812 55.48461914 73.51757812 C55.25800627 79.74943207 55.25800627 79.74943207 52.77563477 82.21498108 C49.97069356 83.80977951 48.17098433 83.90377999 44.95336914 83.92163086 C43.84541992 83.93431503 42.7374707 83.94699921 41.59594727 83.96006775 C40.40420898 83.95713211 39.2124707 83.95419647 37.98461914 83.95117188 C36.75678711 83.95641373 35.52895508 83.96165558 34.26391602 83.96705627 C31.66822058 83.97347912 29.07249606 83.97213614 26.47680664 83.96362305 C22.49971873 83.95511044 18.52406522 83.98387834 14.54711914 84.015625 C12.02628624 84.01723696 9.50545079 84.01665957 6.98461914 84.01367188 C5.19701172 84.03052284 5.19701172 84.03052284 3.37329102 84.04771423 C2.2653418 84.03833328 1.15739258 84.02895233 0.01586914 84.01928711 C-0.95801758 84.01912094 -1.9319043 84.01895477 -2.93530273 84.01878357 C-6.27719971 83.36958735 -7.46861324 82.19563967 -9.51538086 79.51757812 C-9.89038086 75.89257812 -9.89038086 75.89257812 -9.51538086 72.51757812 C-7.51538086 70.51757812 -7.51538086 70.51757812 -3.89038086 70.39257812 C-2.77663086 70.43382813 -1.66288086 70.47507812 -0.51538086 70.51757812 C-0.55018555 69.63005859 -0.55018555 69.63005859 -0.58569336 68.72460938 C-0.61276367 67.53931641 -0.61276367 67.53931641 -0.64038086 66.33007812 C-0.67518555 65.16412109 -0.67518555 65.16412109 -0.71069336 63.97460938 C-0.36795759 59.66299338 0.78917398 57.22459475 3.83227539 54.13085938 C4.72817383 53.37160156 5.62407227 52.61234375 6.54711914 51.83007812 C11.42851981 47.75391229 11.42851981 47.75391229 13.04711914 41.76757812 C13.12137862 39.58494604 13.12137862 39.58494604 12.48461914 37.51757812 C10.66269068 35.77082633 8.70542399 34.51981666 6.59790039 33.13476562 C2.95038892 30.34350916 0.98092438 26.81682136 -0.51538086 22.51757812 C-0.88148976 19.37950187 -0.76725263 16.6911625 -0.51538086 13.51757812 C-2.18600586 13.57945313 -2.18600586 13.57945313 -3.89038086 13.64257812 C-7.51538086 13.51757812 -7.51538086 13.51757812 -9.51538086 11.51757812 C-10.19452629 5.40526924 -10.19452629 5.40526924 -7.83665466 2.32336426 C-4.99212145 0.11051947 -3.57179936 0.01170784 0 0 Z " fill="#F4F9FE" transform="translate(30.515380859375,13.482421875)"/>
<path d="M0 0 C13.2 0 26.4 0 40 0 C40 11 40 11 37.875 14.4375 C35.05718174 16.94903367 32.16785421 18.95849395 29 21 C26.51921535 24.72117697 26.35937811 27.68812188 27 32 C29.38854773 36.9761411 32.85564616 39.64063149 37.29296875 42.703125 C39 44 39 44 40 46 C40.07033769 47.87379605 40.0843022 49.75001102 40.0625 51.625 C40.05347656 52.62789062 40.04445312 53.63078125 40.03515625 54.6640625 C40.02355469 55.43492188 40.01195312 56.20578125 40 57 C39.01 57 38.02 57 37 57 C36.690625 55.948125 36.38125 54.89625 36.0625 53.8125 C34.23510067 49.63073036 31.63339463 47.87119048 27.609375 45.87890625 C22.02341665 43.9974083 16.4084365 43.94630903 11 46.3125 C10.34 46.869375 9.68 47.42625 9 48 C8.4225 48.4125 7.845 48.825 7.25 49.25 C5.32073958 51.95096459 5.30577787 54.75875455 5 58 C3.35 58 1.7 58 0 58 C-0.39775461 47.85725742 -0.39775461 47.85725742 2 44 C5.33243142 40.56684018 8.19877419 37.88833253 13 37 C14.20240386 27.93023033 14.20240386 27.93023033 11.2890625 19.80859375 C9.17676805 18.28226158 9.17676805 18.28226158 6.9453125 17.17578125 C4.61264066 15.76587317 3.99708468 14.49271171 3 12 C2.34 12 1.68 12 1 12 C-0.40876405 7.77370786 0 4.89096249 0 0 Z " fill="#1885F2" transform="translate(33,27)"/>
<path d="M0 0 C4.44151618 2.57097041 6.87895482 5.13002246 8.60546875 10.09375 C8.60546875 11.08375 8.60546875 12.07375 8.60546875 13.09375 C10.09046875 12.8153125 10.09046875 12.8153125 11.60546875 12.53125 C15.81562788 11.93102365 19.42588995 12.3145065 23.60546875 13.09375 C24.59546875 14.08375 24.59546875 14.08375 25.60546875 15.09375 C25.37885588 21.32560395 25.37885588 21.32560395 22.89648438 23.79115295 C20.09154317 25.38595139 18.29183394 25.47995186 15.07421875 25.49780273 C13.41229492 25.51682899 13.41229492 25.51682899 11.71679688 25.53623962 C10.52505859 25.53330399 9.33332031 25.53036835 8.10546875 25.52734375 C6.87763672 25.5325856 5.64980469 25.53782745 4.38476562 25.54322815 C1.78907019 25.54965099 -0.80665433 25.54830801 -3.40234375 25.53979492 C-7.37943166 25.53128232 -11.35508517 25.56005021 -15.33203125 25.59179688 C-17.85286415 25.59340884 -20.3736996 25.59283145 -22.89453125 25.58984375 C-24.68213867 25.60669472 -24.68213867 25.60669472 -26.50585938 25.62388611 C-27.61380859 25.61450516 -28.72175781 25.60512421 -29.86328125 25.59545898 C-30.83716797 25.59529282 -31.81105469 25.59512665 -32.81445312 25.59495544 C-36.15951031 24.94514533 -37.35561039 23.7835643 -39.39453125 21.09375 C-39.64453125 17.34375 -39.64453125 17.34375 -39.39453125 14.09375 C-35.92127944 12.9359994 -33.03385677 13.02508348 -29.39453125 13.09375 C-29.39453125 10.12375 -29.39453125 7.15375 -29.39453125 4.09375 C-29.06453125 4.09375 -28.73453125 4.09375 -28.39453125 4.09375 C-28.39453125 7.06375 -28.39453125 10.03375 -28.39453125 13.09375 C-26.41453125 13.09375 -24.43453125 13.09375 -22.39453125 13.09375 C-22.51828125 12.0625 -22.64203125 11.03125 -22.76953125 9.96875 C-22.3256111 5.38157512 -21.24593082 4.25528936 -18 1.2578125 C-13.1419841 -2.26454452 -5.42286984 -2.05237488 0 0 Z " fill="#F8FBFE" transform="translate(60.39453125,71.90625)"/>
<path d="M0 0 C16.83 0 33.66 0 51 0 C52 14 52 14 49.375 18.0625 C47.703125 19.62890625 47.703125 19.62890625 46 21 C41.80719947 24.49613005 41.80719947 24.49613005 40.625 29.625 C41.1374605 34.41553514 41.1374605 34.41553514 44.21484375 37.90234375 C46.02702846 39.25693232 47.83952754 40.61110042 49.65234375 41.96484375 C51.98857319 43.99009423 53.04664303 45.0968395 54 48 C54.1953125 50.796875 54.1953125 50.796875 54.125 53.75 C54.10695312 54.73484375 54.08890625 55.7196875 54.0703125 56.734375 C54.04710937 57.48203125 54.02390625 58.2296875 54 59 C51.36 59 48.72 59 46 59 C45.01 56.03 44.02 53.06 43 50 C45 51.75 45 51.75 47 54 C47 55.32 47 56.64 47 58 C47.99 58 48.98 58 50 58 C49.97810005 50.53429877 49.97810005 50.53429877 46.75 44.0625 C45.8425 43.381875 44.935 42.70125 44 42 C36.55454545 36.32727273 36.55454545 36.32727273 35.6796875 31.078125 C35.47369546 27.42519943 35.7340093 25.4501381 37.625 22.25 C40.22812913 19.78387767 43.01110221 17.97140067 46 16 C50.02908965 11.3571962 50.02908965 11.3571962 50 1 C36.8 1 23.6 1 10 1 C10.33 4.96 10.66 8.92 11 13 C11.66 13 12.32 13 13 13 C14.20258021 14.46982026 15.39985804 15.94459178 16.55859375 17.44921875 C18.09643191 19.29657119 18.09643191 19.29657119 21.3125 20.5625 C24 23 24 23 24.484375 26.03125 C24.68455976 35.07960106 24.68455976 35.07960106 22.71875 37.72265625 C20.81216165 39.13959805 18.89134532 40.52374249 16.9375 41.875 C13.65576045 44.3332994 11.86690597 45.85811594 11 50 C10.57920395 53.0013405 10.27058196 55.97850143 10 59 C4.555 59.495 4.555 59.495 -1 60 C-0.67 59.34 -0.34 58.68 0 58 C2.31 58 4.62 58 7 58 C6.97679687 57.40832031 6.95359375 56.81664062 6.9296875 56.20703125 C6.91164063 55.41683594 6.89359375 54.62664062 6.875 53.8125 C6.85179687 53.03519531 6.82859375 52.25789063 6.8046875 51.45703125 C7.14742327 47.14541525 8.30455484 44.70701663 11.34765625 41.61328125 C12.24355469 40.85402344 13.13945313 40.09476563 14.0625 39.3125 C18.94390066 35.23633417 18.94390066 35.23633417 20.5625 29.25 C20.63675948 27.06736791 20.63675948 27.06736791 20 25 C18.17807154 23.2532482 16.22080485 22.00223853 14.11328125 20.6171875 C10.46576978 17.82593103 8.49630524 14.29924323 7 10 C6.6338911 6.86192374 6.74812822 4.17358437 7 1 C4.69 1 2.38 1 0 1 C0 0.67 0 0.34 0 0 Z " fill="#A6D0FA" transform="translate(23,26)"/>
<path d="M0 0 C9.9 0 19.8 0 30 0 C28.93584733 6.38491599 28.7183507 6.82846766 24.0625 10.5625 C20.43221241 13.49284725 18.38543034 15.49537222 17 20 C16.01 20 15.02 20 14 20 C13.76152344 19.24847656 13.52304687 18.49695313 13.27734375 17.72265625 C11.79916913 14.57192932 10.37917726 13.43091198 7.5625 11.4375 C4.46298733 9.22648025 1.96931333 7.29907473 0 4 C0 2.68 0 1.36 0 0 Z " fill="#EEF6FE" transform="translate(38,32)"/>
<path d="M0 0 C2 3 2 3 1.5625 5.3125 C-1.09691514 9.88669404 -4.96844618 13.32281539 -10 15 C-10 13.68 -10 12.36 -10 11 C-8.63875 10.1028125 -8.63875 10.1028125 -7.25 9.1875 C-3.24418449 6.49127802 -2.1295339 4.2590678 0 0 Z " fill="#CAE3FC" transform="translate(73,35)"/>
<path d="M0 0 C-3.13909406 3.25982844 -6.51950034 6.11192582 -10 9 C-11.01680311 9.98290968 -12.02738219 10.97334787 -13 12 C-12.17857636 7.56431237 -10.17658845 4.17658845 -7 1 C-2.38461538 -1.19230769 -2.38461538 -1.19230769 0 0 Z " fill="#D7EAFC" transform="translate(45,63)"/>
<path d="M0 0 C3.3 0 6.6 0 10 0 C10.33 4.29 10.66 8.58 11 13 C10.01 13.495 10.01 13.495 9 14 C7.21590198 10.93753253 6.77119979 8.77920727 6.875 5.25 C6.89304687 4.45078125 6.91109375 3.6515625 6.9296875 2.828125 C6.95289063 2.22484375 6.97609375 1.6215625 7 1 C4.69 1 2.38 1 0 1 C0 0.67 0 0.34 0 0 Z " fill="#B4D7FA" transform="translate(23,26)"/>
<path d="M0 0 C0.33 0 0.66 0 1 0 C1 2.64 1 5.28 1 8 C1.66 8 2.32 8 3 8 C2.67 9.32 2.34 10.64 2 12 C1.01 11.67 0.02 11.34 -1 11 C-1.99 11 -2.98 11 -4 11 C-3.2884375 10.2265625 -3.2884375 10.2265625 -2.5625 9.4375 C-0.57190593 6.33217325 -0.34939182 3.63367496 0 0 Z " fill="#9DCBF9" transform="translate(44,52)"/>
<path d="M0 0 C1.33617352 0.97528737 2.6688751 1.95533319 4 2.9375 C4.7425 3.48277344 5.485 4.02804688 6.25 4.58984375 C6.8275 5.05519531 7.405 5.52054687 8 6 C8 6.33 8 6.66 8 7 C5.6875 7.25 5.6875 7.25 3 7 C1.1875 5.1875 1.1875 5.1875 0 3 C0 2.01 0 1.02 0 0 Z " fill="#D7EAFD" transform="translate(61,59)"/>
<path d="M0 0 C1.485 0.99 1.485 0.99 3 2 C3.29296875 4.1640625 3.29296875 4.1640625 3.1875 6.625 C3.16042969 7.44226562 3.13335937 8.25953125 3.10546875 9.1015625 C3.07066406 9.72804688 3.03585938 10.35453125 3 11 C2.34 11 1.68 11 1 11 C0.67 7.37 0.34 3.74 0 0 Z " fill="#E8F3FD" transform="translate(44,49)"/>
<path d="M0 0 C3.14624993 -0.26218749 4.61837017 -0.24754367 7.3125 1.5 C8.1478125 2.2425 8.1478125 2.2425 9 3 C8.67 3.66 8.34 4.32 8 5 C4.20411134 4.45773019 2.52788007 2.79872437 0 0 Z " fill="#BEDDFB" transform="translate(38,46)"/>
<path d="M0 0 C-1.45255699 3.82946843 -3.42895561 5.12050295 -7 7 C-3.86206897 0 -3.86206897 0 0 0 Z " fill="#3D99F4" transform="translate(63,42)"/>
</svg>
